Patient4_TMGait_0pt7_01_left_01_GRF.mot
version=1
nRows=26
nColumns=19
inDegrees=no
endheader
time	F1x	F1y	F1z	M1x	M1y	M1z	F2x	F2y	F2z	M2x	M2y	M2z	EC1x	EC1y	EC1z	EC2x	EC2y	EC2z
1.13	12.438	-13.6194	3.5396	2.7325	-1.5944	-27.0817	-32.6782	717.1676	-44.0182	219.5685	65.1758	764.372	-0.0592	0.0182	-0.0073	-0.0462	0.0165	0.9585
1.1415	8.1777	-8.0711	2.3775	1.4272	-1.1945	-16.9373	-33.1792	713.5607	-49.4961	220.0964	68.4059	756.541	-0.0592	0.0182	-0.0073	-0.0462	0.0165	0.9585
1.153	4.6332	-3.4116	1.4174	0.31768	-0.8468	-8.449	-32.9965	712.8611	-54.1734	221.3285	70.917	750.9658	-0.0592	0.0182	-0.0073	-0.0462	0.0165	0.9585
1.1645	1.9369	0.14218	0.70376	-0.54118	-0.58927	-2.0066	-32.058	715.5522	-57.7911	223.3811	72.5396	748.2416	-0.0592	0.0182	-0.0073	-0.0462	0.0165	0.9585
1.176	0.10126	2.6004	0.23227	-1.1495	-0.42346	2.3967	-30.3726	721.5343	-60.3172	226.2733	73.2553	748.3364	-0.0592	0.0182	-0.0073	-0.0462	0.0165	0.9585
1.1875	-1.0566	4.142	-0.03742	-1.5458	-0.3514	5.1189	-27.9477	730.2804	-61.8538	229.922	73.1156	750.7423	-0.0592	0.0182	-0.0073	-0.0462	0.0165	0.9585
1.199	-1.6723	4.959	-0.15127	-1.7714	-0.3503	6.5133	-24.7755	740.9548	-62.5414	234.1475	72.1744	754.6215	-0.0592	0.0182	-0.0073	-0.0462	0.0165	0.9585
1.2105	-1.9617	5.2568	-0.15761	-1.8663	-0.41389	6.9957	-20.8355	752.5383	-62.5477	238.6867	70.4977	758.9642	-0.0592	0.0182	-0.0073	-0.0462	0.0165	0.9585
1.222	-2.0318	5.1505	-0.093256	-1.8458	-0.5213	6.7994	-16.1188	764.01	-62.0437	243.2407	68.1714	762.7959	-0.0592	0.0182	-0.0073	-0.0462	0.0165	0.9585
1.2335	-2.0388	4.728	0.011457	-1.7138	-0.66923	6.1531	-10.7203	774.4799	-61.1995	247.5188	65.3267	765.3316	-0.0592	0.0182	-0.0073	-0.0462	0.0165	0.9585
1.245	-2.0165	3.9689	0.14808	-1.4459	-0.8483	5.0804	-4.8551	783.3247	-60.1817	251.2815	62.1441	766.1224	-0.0592	0.0182	-0.0073	-0.0462	0.0165	0.9585
1.2565	-2.0484	2.851	0.29054	-1.0117	-1.0468	3.6252	1.1521	790.1499	-59.1478	254.3391	58.8463	764.9952	-0.0592	0.0182	-0.0073	-0.0462	0.0165	0.9585
1.268	-2.0792	1.2795	0.43184	-0.3668	-1.2346	1.6809	6.902	794.7081	-58.2525	256.5384	55.6932	761.9435	-0.0592	0.0182	-0.0073	-0.0462	0.0165	0.9585
1.2795	-2.1095	-0.78373	0.54215	0.51153	-1.3743	-0.74623	12.0421	796.8472	-57.6148	257.7597	52.9109	757.0525	-0.0592	0.0182	-0.0073	-0.0462	0.0165	0.9585
1.291	-2.016	-3.3412	0.60026	1.6145	-1.4001	-3.6846	16.2936	796.3993	-57.3199	257.8977	50.671	750.3393	-0.0592	0.0182	-0.0073	-0.0462	0.0165	0.9585
1.3025	-1.7191	-6.197	0.56426	2.8548	-1.2255	-6.8947	19.5438	793.2563	-57.4076	256.8882	49.0558	741.8174	-0.0592	0.0182	-0.0073	-0.0462	0.0165	0.9585
1.314	-1.0191	-8.9347	0.38478	4.0405	-0.71354	-9.96	21.8179	787.387	-57.8809	254.7219	48.0684	731.4905	-0.0592	0.0182	-0.0073	-0.0462	0.0165	0.9585
1.3255	0.22176	-10.7405	-0.002622	4.8161	0.27939	-11.9535	23.2706	778.9486	-58.7126	251.4775	47.641	719.4617	-0.0592	0.0182	-0.0073	-0.0462	0.0165	0.9585
1.337	2.2249	-10.3966	-0.68292	4.6372	1.9409	-11.5299	24.1438	768.3195	-59.8508	247.3279	47.6672	705.9767	-0.0592	0.0182	-0.0073	-0.0462	0.0165	0.9585
1.3485	5.0846	-6.139	-1.7289	2.7326	4.4061	-6.6595	24.6998	755.9921	-61.1979	242.4999	47.9936	691.3641	-0.0592	0.0182	-0.0073	-0.0462	0.0165	0.9585
1.36	8.8561	4.2411	-3.2091	-1.8691	7.7628	5.1593	25.2074	742.4389	-62.6199	237.221	48.4366	675.9281	-0.0592	0.0182	-0.0073	-0.0462	0.0165	0.9585
1.3715	13.2938	23.3188	-5.1175	-10.2823	11.8926	26.8938	25.8701	727.8812	-63.9282	231.6378	48.7819	659.7674	-0.0592	0.0182	-0.0073	-0.0462	0.0165	0.9585
1.383	17.8479	53.5614	-7.3307	-23.5733	16.3968	61.3454	26.8415	712.1291	-64.8762	225.7577	48.7798	642.6419	-0.0592	0.0182	-0.0073	-0.0462	0.0165	0.9585
1.3945	21.3944	96.6702	-9.5346	-42.4551	20.4192	110.4831	28.1739	694.5036	-65.1808	219.4174	48.1787	623.9312	-0.0592	0.0182	-0.0073	-0.0462	0.0165	0.9585
1.406	22.2555	152.5153	-11.1584	-66.8308	22.5775	174.1503	29.8244	673.8698	-64.5052	212.2939	46.7139	602.6543	-0.0592	0.0182	-0.0073	-0.0462	0.0165	0.9585
1.4175	18.4877	218.1128	-11.413	-95.341	21.1422	248.9781	31.6261	648.8202	-62.5563	203.9613	44.1989	577.6478	-0.0592	0.0182	-0.0073	-0.0462	0.0165	0.9585
